<svg xmlns="http://www.w3.org/2000/svg" viewBox="0 0 900 280">
<defs><filter id="w"><feTurbulence type="fractalNoise" baseFrequency="0.035" numOctaves="3" seed="9"/><feDisplacementMap in="SourceGraphic" scale="5"/></filter><radialGradient id="l" cx="40%" cy="35%" r="70%"><stop offset="0" stop-color="#fff7b3"/><stop offset=".36" stop-color="#e5ca26"/><stop offset="1" stop-color="#c9930b"/></radialGradient><linearGradient id="leaf" x1="0" y1="0" x2="1" y2="1"><stop stop-color="#b7c7a7"/><stop offset="1" stop-color="#5e7753"/></linearGradient></defs><g filter="url(#w)" opacity=".78"><path d="M-20 120 C190 60 330 40 520 5" stroke="#71825f" stroke-width="10" fill="none"/><ellipse cx="90" cy="90" rx="62" ry="75" fill="url(#l)" transform="rotate(-20 90 90)"/><ellipse cx="220" cy="63" rx="68" ry="80" fill="url(#l)" transform="rotate(14 220 63)"/><ellipse cx="410" cy="35" rx="70" ry="84" fill="url(#l)" transform="rotate(-8 410 35)"/><path d="M250 55 C282 7 340 8 378 38 C330 79 286 82 250 55Z" fill="url(#leaf)"/><path d="M80 90 C110 42 168 45 200 75 C155 112 112 116 80 90Z" fill="url(#leaf)"/></g></svg>
