<svg xmlns="http://www.w3.org/2000/svg" viewBox="0 0 620 360">
 <defs><filter id="w"><feTurbulence type="fractalNoise" baseFrequency="0.03" numOctaves="4" seed="14"/><feDisplacementMap in="SourceGraphic" scale="5"/></filter><radialGradient id="l" cx="38%" cy="30%" r="70%"><stop offset="0" stop-color="#fff8b6"/><stop offset=".3" stop-color="#ead12b"/><stop offset=".72" stop-color="#d7aa11"/><stop offset="1" stop-color="#c49309"/></radialGradient><linearGradient id="leaf" x1="0" y1="0" x2="1" y2="1"><stop stop-color="#bdc9a9"/><stop offset="1" stop-color="#58734f"/></linearGradient></defs>
 <g filter="url(#w)" opacity=".97">
  <path d="M10 280 C120 190 260 130 455 42" fill="none" stroke="#667c58" stroke-width="10" stroke-linecap="round"/>
  <path d="M150 180 C170 125 230 118 265 138 C220 185 178 200 150 180Z" fill="url(#leaf)" opacity=".82"/>
  <path d="M250 135 C273 80 336 75 370 98 C323 145 282 157 250 135Z" fill="url(#leaf)" opacity=".86"/>
  <path d="M385 72 C414 20 476 20 505 45 C462 89 420 97 385 72Z" fill="url(#leaf)" opacity=".86"/>
  <path d="M345 96 C365 150 338 194 286 202 C292 153 312 119 345 96Z" fill="url(#leaf)" opacity=".72"/>
  <ellipse cx="205" cy="198" rx="72" ry="82" transform="rotate(-26 205 198)" fill="url(#l)"/>
  <ellipse cx="326" cy="131" rx="78" ry="86" transform="rotate(8 326 131)" fill="url(#l)"/>
  <ellipse cx="452" cy="66" rx="61" ry="72" transform="rotate(-20 452 66)" fill="url(#l)"/>
  <circle cx="190" cy="168" r="18" fill="#fffbe2" opacity=".45"/><circle cx="336" cy="98" r="20" fill="#fffbe2" opacity=".4"/><circle cx="460" cy="43" r="13" fill="#fffbe2" opacity=".45"/>
 </g>
</svg>
